HIERARCHY
ROOT Hips
{
 OFFSET 0.000000 0.000000 0.000000
 CHANNELS 6 Xposition Yposition Zposition Yrotation Xrotation Zrotation
 JOINT Chest
 {
  OFFSET 0.000000 9.585900 0.002600
  CHANNELS 3 Yrotation Xrotation Zrotation
  JOINT Chest2
  {
   OFFSET 0.000000 9.601200 -0.005300
   CHANNELS 3 Yrotation Xrotation Zrotation
   JOINT Chest3
   {
    OFFSET 0.000000 9.561800 0.000000
    CHANNELS 3 Yrotation Xrotation Zrotation
    JOINT Chest4
    {
     OFFSET 0.000000 9.552100 0.000000
     CHANNELS 3 Yrotation Xrotation Zrotation
     JOINT Neck
     {
      OFFSET 0.000000 14.453000 0.000000
      CHANNELS 3 Yrotation Xrotation Zrotation
      JOINT Head
      {
       OFFSET 0.000000 8.936500 -0.011300
       CHANNELS 3 Yrotation Xrotation Zrotation
       End Site
       {
        OFFSET 0.000000 17.073600 -0.006000
       }
      }
     }
     JOINT RightCollar
     {
      OFFSET -2.921100 9.558500 0.000000
      CHANNELS 3 Yrotation Xrotation Zrotation
      JOINT RightShoulder
      {
       OFFSET -13.519700 0.000000 0.000000
       CHANNELS 3 Yrotation Xrotation Zrotation
       JOINT RightElbow
       {
        OFFSET 0.000000 -29.696600 0.000000
        CHANNELS 3 Yrotation Xrotation Zrotation
        JOINT RightWrist
        {
         OFFSET 0.000000 -24.004700 0.000000
         CHANNELS 3 Yrotation Xrotation Zrotation
         End Site
         {
          OFFSET 0.000000 -17.728500 0.000000
         }
        }
       }
      }
     }
     JOINT LeftCollar
     {
      OFFSET 2.921100 9.558500 0.000000
      CHANNELS 3 Yrotation Xrotation Zrotation
      JOINT LeftShoulder
      {
       OFFSET 13.519700 0.000000 0.000000
       CHANNELS 3 Yrotation Xrotation Zrotation
       JOINT LeftElbow
       {
        OFFSET 0.000000 -29.696600 0.000000
        CHANNELS 3 Yrotation Xrotation Zrotation
        JOINT LeftWrist
        {
         OFFSET 0.000000 -24.004700 0.000000
         CHANNELS 3 Yrotation Xrotation Zrotation
         End Site
         {
          OFFSET 0.000000 -17.728500 0.000000
         }
        }
       }
      }
     }
    }
   }
  }
 }
 JOINT RightHip
 {
  OFFSET -7.771700 -0.012900 -0.001300
  CHANNELS 3 Yrotation Xrotation Zrotation
  JOINT RightKnee
  {
   OFFSET 0.000000 -40.869800 0.001200
   CHANNELS 3 Yrotation Xrotation Zrotation
   JOINT RightAnkle
   {
    OFFSET 0.000000 -39.717900 0.002100
    CHANNELS 3 Yrotation Xrotation Zrotation
    JOINT RightToe
    {
     OFFSET 0.000000 -4.965400 11.033500
     CHANNELS 3 Yrotation Xrotation Zrotation
     End Site
     {
      OFFSET 0.000000 -1.423100 5.872300
     }
    }
   }
  }
 }
 JOINT LeftHip
 {
  OFFSET 7.771700 -0.012900 -0.001300
  CHANNELS 3 Yrotation Xrotation Zrotation
  JOINT LeftKnee
  {
   OFFSET 0.000000 -40.869800 0.001200
   CHANNELS 3 Yrotation Xrotation Zrotation
   JOINT LeftAnkle
   {
    OFFSET 0.000000 -39.717900 0.002100
    CHANNELS 3 Yrotation Xrotation Zrotation
    JOINT LeftToe
    {
     OFFSET 0.000000 -4.965400 11.033500
     CHANNELS 3 Yrotation Xrotation Zrotation
     End Site
     {
      OFFSET 0.000000 -1.423100 5.872300
     }
    }
   }
  }
 }
}
MOTION
Frames: 5
Frame Time: 0.008333
-250.692646 56.169537 154.281280 178.738842 -50.557545 -0.790845 1.315141 25.457351 3.053429 0.070787 4.123099 0.504996 0.128824 6.580856 0.810336 0.771872 20.979242 2.730567 -0.021869 17.320973 -2.338210 0.747846 -3.604840 -4.307506 -0.844839 0.498707 -0.934329 -1.329826 -19.538328 -4.471891 134.088673 -44.292018 -134.292276 15.929850 -14.395721 -47.565120 -5.882035 1.500269 -0.277224 36.194004 -9.231258 -2.684593 -157.864221 -45.221923 158.671938 -7.778166 -17.035612 32.982481 6.354278 -25.909890 -6.226459 -13.564225 61.341723 -14.814096 5.789205 31.433563 2.338017 -0.885772 -15.434026 7.440403 -12.135356 -24.695771 -0.751313 33.147935 63.309113 30.133800 -13.517214 11.584458 -6.519938 0.166711 0.405152 0.078063
-250.692169 56.168880 154.281229 178.744807 -50.551049 -0.797949 1.313427 25.450607 3.055870 0.068354 4.121999 0.502858 0.127975 6.576712 0.809457 0.770662 20.979362 2.731801 -0.013641 17.322216 -2.338692 0.760649 -3.609899 -4.321266 -0.833964 0.500017 -0.937490 -1.333810 -19.538629 -4.470822 134.095465 -44.293445 -134.287534 15.923783 -14.387352 -47.563238 -5.884568 1.506158 -0.276628 36.200515 -9.230334 -2.686911 -157.871687 -45.222839 158.675967 -7.770654 -17.035428 32.970887 6.349215 -25.912298 -6.230171 -13.567298 61.338727 -14.806752 5.787847 31.418415 2.326534 -0.883689 -15.421189 7.441667 -12.142123 -24.701891 -0.746753 33.137990 63.310906 30.127395 -13.514914 11.582372 -6.524027 0.158337 0.406398 0.078466
-250.692704 56.168760 154.280757 178.748698 -50.548209 -0.797366 1.307490 25.447722 3.047361 0.066576 4.120626 0.501675 0.128246 6.575421 0.810245 0.769499 20.977102 2.731551 -0.009315 17.316723 -2.344722 0.774777 -3.604325 -4.325673 -0.826046 0.500392 -0.943288 -1.335425 -19.538246 -4.469249 134.105586 -44.299193 -134.289261 15.919040 -14.379832 -47.564705 -5.884134 1.499858 -0.277765 36.198582 -9.217317 -2.682223 -157.886918 -45.220506 158.689261 -7.766783 -17.037833 32.966654 6.346306 -25.911140 -6.241894 -13.556844 61.336325 -14.790491 5.795237 31.412573 2.325368 -0.892978 -15.417188 7.442130 -12.148921 -24.704961 -0.749713 33.132658 63.311300 30.123296 -13.517733 11.579195 -6.527849 0.159252 0.407569 0.076534
-250.693833 56.168929 154.280082 178.752117 -50.547247 -0.793082 1.299979 25.447008 3.035932 0.066784 4.120144 0.502309 0.126182 6.572860 0.808171 0.769695 20.975340 2.730882 -0.005141 17.316608 -2.345801 0.782907 -3.604389 -4.329175 -0.821038 0.500842 -0.945530 -1.335586 -19.538751 -4.471259 134.119566 -44.305075 -134.295686 15.917619 -14.373226 -47.568847 -5.886205 1.499300 -0.275492 36.199963 -9.214962 -2.678169 -157.902764 -45.224432 158.701594 -7.778090 -17.036766 32.969333 6.342563 -25.908208 -6.252843 -13.551340 61.332810 -14.783281 5.797884 31.409856 2.319067 -0.894724 -15.416240 7.445078 -12.159917 -24.709684 -0.763050 33.131318 63.314911 30.122499 -13.495355 11.580451 -6.520407 0.153317 0.405008 0.065864
-250.691326 56.168748 154.279866 178.747729 -50.543157 -0.804642 1.301648 25.439929 3.041916 0.071983 4.122688 0.506212 0.126998 6.571494 0.809140 0.769069 20.971215 2.729544 -0.002435 17.319886 -2.345583 0.788498 -3.607915 -4.333383 -0.818679 0.500979 -0.949123 -1.337480 -19.534516 -4.467417 134.134667 -44.303899 -134.304514 15.919278 -14.367158 -47.571060 -5.890597 1.500386 -0.273258 36.206572 -9.211442 -2.676040 -157.918887 -45.223080 158.717663 -7.785061 -17.032288 32.967316 6.335686 -25.912820 -6.241992 -13.559176 61.328981 -14.778842 5.799823 31.412465 2.303751 -0.893289 -15.418209 7.447343 -12.167690 -24.712188 -0.748960 33.112399 63.324252 30.117457 -13.482088 11.572578 -6.533487 0.156304 0.406217 0.067676
